<svg width="214" height="24" viewBox="0 0 214 24" fill="none" xmlns="http://www.w3.org/2000/svg">
<path d="M5.05803 18.216C4.37403 18.216 3.70803 18.15 3.06003 18.018C2.42403 17.898 1.84203 17.73 1.31403 17.514C0.798031 17.298 0.360031 17.064 3.05176e-05 16.812L1.18803 14.562C1.58403 14.838 2.00403 15.078 2.44803 15.282C2.90403 15.474 3.37803 15.624 3.87003 15.732C4.36203 15.828 4.85403 15.876 5.34603 15.876C5.88603 15.876 6.34803 15.816 6.73203 15.696C7.12803 15.576 7.42803 15.408 7.63203 15.192C7.84803 14.976 7.95603 14.712 7.95603 14.4C7.95603 14.112 7.84203 13.878 7.61403 13.698C7.38603 13.518 7.08603 13.368 6.71403 13.248C6.35403 13.116 5.95203 12.99 5.50803 12.87C5.06403 12.75 4.61403 12.612 4.15803 12.456C3.71403 12.288 3.30603 12.084 2.93403 11.844C2.57403 11.592 2.28003 11.274 2.05203 10.89C1.82403 10.506 1.71003 10.026 1.71003 9.45002C1.71003 8.58602 1.94403 7.83602 2.41203 7.20002C2.89203 6.56402 3.56403 6.07202 4.42803 5.72402C5.29203 5.36402 6.30603 5.18402 7.47003 5.18402C8.32203 5.18402 9.12603 5.28002 9.88203 5.47202C10.638 5.65202 11.286 5.91602 11.826 6.26402L10.728 8.49602C10.248 8.17202 9.71403 7.93202 9.12603 7.77602C8.53803 7.60802 7.93203 7.52402 7.30803 7.52402C6.74403 7.52402 6.25803 7.59002 5.85003 7.72202C5.45403 7.85402 5.14803 8.04002 4.93203 8.28002C4.72803 8.50802 4.62603 8.77202 4.62603 9.07202C4.62603 9.37202 4.73403 9.61802 4.95003 9.81002C5.17803 9.99002 5.47803 10.146 5.85003 10.278C6.22203 10.398 6.63003 10.518 7.07403 10.638C7.51803 10.758 7.96203 10.896 8.40603 11.052C8.85003 11.208 9.25803 11.406 9.63003 11.646C10.002 11.886 10.302 12.192 10.53 12.564C10.758 12.924 10.872 13.38 10.872 13.932C10.872 14.796 10.632 15.552 10.152 16.2C9.67203 16.836 8.99403 17.334 8.11803 17.694C7.25403 18.042 6.23403 18.216 5.05803 18.216ZM11.6046 18L14.1246 5.40002H17.0586L14.5386 18H11.6046ZM16.9708 18L19.4908 5.40002H21.8668L25.4488 14.328L24.1888 14.31L31.1728 5.40002H33.6748L31.1728 18H28.4368L30.1108 9.55802H30.6688L25.1068 16.668H23.8108L20.8408 9.54002L21.3808 9.59402L19.7068 18H16.9708ZM33.6222 18L36.1422 5.40002H41.2362C42.8082 5.40002 44.0202 5.74802 44.8722 6.44402C45.7362 7.12802 46.1682 8.08802 46.1682 9.32402C46.1682 10.38 45.9222 11.304 45.4302 12.096C44.9382 12.876 44.2302 13.476 43.3062 13.896C42.3942 14.316 41.3082 14.526 40.0482 14.526H35.9622L37.5102 13.194L36.5562 18H33.6222ZM37.4382 13.536L36.4122 12.15H40.1742C41.1342 12.15 41.8782 11.934 42.4062 11.502C42.9462 11.058 43.2162 10.416 43.2162 9.57602C43.2162 8.96402 43.0122 8.51402 42.6042 8.22602C42.1962 7.92602 41.6202 7.77602 40.8762 7.77602H37.3302L38.8782 6.35402L37.4382 13.536ZM46.09 18L48.61 5.40002H51.544L49.492 15.624H55.81L55.324 18H46.09ZM58.2445 18L59.2705 12.816L59.5945 14.652L55.8865 5.40002H58.8025L61.6285 12.474L59.8645 12.492L65.5705 5.40002H68.5765L61.1965 14.67L62.1865 12.816L61.1605 18H58.2445ZM78.2962 18.216C77.3242 18.216 76.4182 18.06 75.5782 17.748C74.7502 17.424 74.0302 16.968 73.4182 16.38C72.8062 15.792 72.3262 15.102 71.9782 14.31C71.6422 13.518 71.4742 12.648 71.4742 11.7C71.4742 10.752 71.6422 9.88202 71.9782 9.09002C72.3262 8.29802 72.8062 7.60802 73.4182 7.02002C74.0422 6.43202 74.7682 5.98202 75.5962 5.67002C76.4242 5.34602 77.3302 5.18402 78.3142 5.18402C79.4062 5.18402 80.3902 5.37602 81.2662 5.76002C82.1542 6.13202 82.8982 6.68402 83.4982 7.41602L81.6262 9.14402C81.1942 8.65202 80.7142 8.28602 80.1862 8.04602C79.6582 7.79402 79.0822 7.66802 78.4582 7.66802C77.8702 7.66802 77.3302 7.76402 76.8382 7.95602C76.3462 8.14802 75.9202 8.42402 75.5602 8.78402C75.2002 9.14402 74.9182 9.57002 74.7142 10.062C74.5222 10.554 74.4262 11.1 74.4262 11.7C74.4262 12.3 74.5222 12.846 74.7142 13.338C74.9182 13.83 75.2002 14.256 75.5602 14.616C75.9202 14.976 76.3462 15.252 76.8382 15.444C77.3302 15.636 77.8702 15.732 78.4582 15.732C79.0822 15.732 79.6582 15.612 80.1862 15.372C80.7142 15.12 81.1942 14.742 81.6262 14.238L83.4982 15.966C82.8982 16.698 82.1542 17.256 81.2662 17.64C80.3902 18.024 79.4002 18.216 78.2962 18.216ZM93.5674 5.40002H96.4834V18H93.5674V5.40002ZM87.8434 18H84.9274V5.40002H87.8434V18ZM93.7834 12.834H87.6274V10.368H93.7834V12.834ZM105.045 18.216C104.049 18.216 103.125 18.054 102.273 17.73C101.433 17.406 100.701 16.95 100.077 16.362C99.4645 15.774 98.9845 15.084 98.6365 14.292C98.3005 13.5 98.1325 12.636 98.1325 11.7C98.1325 10.764 98.3005 9.90002 98.6365 9.10802C98.9845 8.31602 99.4705 7.62602 100.095 7.03802C100.719 6.45002 101.451 5.99402 102.291 5.67002C103.131 5.34602 104.043 5.18402 105.027 5.18402C106.023 5.18402 106.935 5.34602 107.763 5.67002C108.603 5.99402 109.329 6.45002 109.941 7.03802C110.565 7.62602 111.051 8.31602 111.399 9.10802C111.747 9.88802 111.921 10.752 111.921 11.7C111.921 12.636 111.747 13.506 111.399 14.31C111.051 15.102 110.565 15.792 109.941 16.38C109.329 16.956 108.603 17.406 107.763 17.73C106.935 18.054 106.029 18.216 105.045 18.216ZM105.027 15.732C105.591 15.732 106.107 15.636 106.575 15.444C107.055 15.252 107.475 14.976 107.835 14.616C108.195 14.256 108.471 13.83 108.663 13.338C108.867 12.846 108.969 12.3 108.969 11.7C108.969 11.1 108.867 10.554 108.663 10.062C108.471 9.57002 108.195 9.14402 107.835 8.78402C107.487 8.42402 107.073 8.14802 106.593 7.95602C106.113 7.76402 105.591 7.66802 105.027 7.66802C104.463 7.66802 103.941 7.76402 103.461 7.95602C102.993 8.14802 102.579 8.42402 102.219 8.78402C101.859 9.14402 101.577 9.57002 101.373 10.062C101.181 10.554 101.085 11.1 101.085 11.7C101.085 12.288 101.181 12.834 101.373 13.338C101.577 13.83 101.853 14.256 102.201 14.616C102.561 14.976 102.981 15.252 103.461 15.444C103.941 15.636 104.463 15.732 105.027 15.732ZM119.602 18.216C118.63 18.216 117.724 18.06 116.884 17.748C116.056 17.424 115.336 16.968 114.724 16.38C114.112 15.792 113.632 15.102 113.284 14.31C112.948 13.518 112.78 12.648 112.78 11.7C112.78 10.752 112.948 9.88202 113.284 9.09002C113.632 8.29802 114.112 7.60802 114.724 7.02002C115.348 6.43202 116.074 5.98202 116.902 5.67002C117.73 5.34602 118.636 5.18402 119.62 5.18402C120.712 5.18402 121.696 5.37602 122.572 5.76002C123.46 6.13202 124.204 6.68402 124.804 7.41602L122.932 9.14402C122.5 8.65202 122.02 8.28602 121.492 8.04602C120.964 7.79402 120.388 7.66802 119.764 7.66802C119.176 7.66802 118.636 7.76402 118.144 7.95602C117.652 8.14802 117.226 8.42402 116.866 8.78402C116.506 9.14402 116.224 9.57002 116.02 10.062C115.828 10.554 115.732 11.1 115.732 11.7C115.732 12.3 115.828 12.846 116.02 13.338C116.224 13.83 116.506 14.256 116.866 14.616C117.226 14.976 117.652 15.252 118.144 15.444C118.636 15.636 119.176 15.732 119.764 15.732C120.388 15.732 120.964 15.612 121.492 15.372C122.02 15.12 122.5 14.742 122.932 14.238L124.804 15.966C124.204 16.698 123.46 17.256 122.572 17.64C121.696 18.024 120.706 18.216 119.602 18.216ZM132.09 18.216C131.094 18.216 130.17 18.054 129.318 17.73C128.478 17.406 127.746 16.95 127.122 16.362C126.51 15.774 126.03 15.084 125.682 14.292C125.346 13.5 125.178 12.636 125.178 11.7C125.178 10.764 125.346 9.90002 125.682 9.10802C126.03 8.31602 126.516 7.62602 127.14 7.03802C127.764 6.45002 128.496 5.99402 129.336 5.67002C130.176 5.34602 131.088 5.18402 132.072 5.18402C133.068 5.18402 133.98 5.34602 134.808 5.67002C135.648 5.99402 136.374 6.45002 136.986 7.03802C137.61 7.62602 138.096 8.31602 138.444 9.10802C138.792 9.88802 138.966 10.752 138.966 11.7C138.966 12.636 138.792 13.506 138.444 14.31C138.096 15.102 137.61 15.792 136.986 16.38C136.374 16.956 135.648 17.406 134.808 17.73C133.98 18.054 133.074 18.216 132.09 18.216ZM132.072 15.732C132.636 15.732 133.152 15.636 133.62 15.444C134.1 15.252 134.52 14.976 134.88 14.616C135.24 14.256 135.516 13.83 135.708 13.338C135.912 12.846 136.014 12.3 136.014 11.7C136.014 11.1 135.912 10.554 135.708 10.062C135.516 9.57002 135.24 9.14402 134.88 8.78402C134.532 8.42402 134.118 8.14802 133.638 7.95602C133.158 7.76402 132.636 7.66802 132.072 7.66802C131.508 7.66802 130.986 7.76402 130.506 7.95602C130.038 8.14802 129.624 8.42402 129.264 8.78402C128.904 9.14402 128.622 9.57002 128.418 10.062C128.226 10.554 128.13 11.1 128.13 11.7C128.13 12.288 128.226 12.834 128.418 13.338C128.622 13.83 128.898 14.256 129.246 14.616C129.606 14.976 130.026 15.252 130.506 15.444C130.986 15.636 131.508 15.732 132.072 15.732ZM140.617 18V5.40002H143.533V15.624H149.851V18H140.617ZM149.355 18L154.971 5.40002H157.851L163.485 18H160.425L155.817 6.87602H156.969L152.343 18H149.355ZM152.163 15.3L152.937 13.086H159.417L160.209 15.3H152.163ZM166.229 18V7.77602H162.197V5.40002H173.177V7.77602H169.145V18H166.229ZM176.888 10.476H182.954V12.744H176.888V10.476ZM177.104 15.66H183.962V18H174.206V5.40002H183.728V7.74002H177.104V15.66Z" fill="#111111"/>
<path d="M192.102 15.0568L200.185 1.9886L200.665 1.48303L206.841 5.6014L206.884 8.08665L208.391 10.5463L201.731 21.1038L192.102 15.0568Z" fill="#FCF1E0"/>
<path d="M205.37 17.9097L194.731 11.2616M197.665 6.44905L208.304 13.0971M197.117 19.3982L205.918 4.96051M209.526 11.0919C207.247 9.6673 206.351 8.55395 207.818 6.14767L200.599 1.63647L191.797 16.0742L202.436 22.7223L209.526 11.0919Z" stroke="#FD9222" stroke-width="2" stroke-linecap="round" stroke-linejoin="round"/>
</svg>
