<svg width="62" height="62" viewBox="0 0 62 62" fill="none" xmlns="http://www.w3.org/2000/svg">
<g clip-path="url(#clip0_25_17)">
<path d="M61.5 31C61.5 14.1553 47.8447 0.5 31 0.5C14.1553 0.5 0.5 14.1553 0.5 31C0.5 47.8447 14.1553 61.5 31 61.5C47.8447 61.5 61.5 47.8447 61.5 31Z" stroke="white" stroke-opacity="0.5"/>
<path d="M30.4516 29.106C29.669 28.156 29.2751 26.99 29.2751 25.8241C29.2751 21.5003 34.4561 17.1819 39.6372 17.1819C42.4976 17.1819 44.8183 19.503 44.8183 22.364C44.8183 27.546 40.5007 32.7281 36.1724 32.7281C35.0066 32.7281 33.8409 32.334 32.891 31.5513L20.1327 44.3122C19.458 44.9869 18.3625 44.9869 17.6878 44.3122C17.0132 43.6374 17.0132 42.5416 17.6878 41.8669L30.4516 29.106Z" fill="#FD9222"/>
</g>
<defs>
<clipPath id="clip0_25_17">
<rect width="62" height="62" fill="white"/>
</clipPath>
</defs>
</svg>
